<svg width="116" height="39" viewBox="0 0 116 39" fill="none" xmlns="http://www.w3.org/2000/svg">
<g clip-path="url(#clip0_2_1137)">
<path d="M106.779 0H9.2214C8.87667 0 8.53195 0 8.18722 0C7.92868 0 7.58395 0 7.32541 0C6.63596 0 6.03269 0.0866667 5.34324 0.173333C4.73997 0.26 4.1367 0.52 3.53343 0.78C2.93016 1.12667 2.41308 1.47333 1.89599 1.90667C1.46508 2.34 1.03418 2.94667 0.775631 3.46667C0.517088 4.16 0.258544 4.76667 0.172363 5.37333C0.0861813 6.06667 0 6.67333 0 7.36667C0 7.62667 0 7.97333 0 8.23333C0 8.58 0 8.92667 0 9.27333V29.64C0 29.9867 0 30.3333 0 30.68C0 30.94 0 31.2867 0 31.5467C0 32.24 0.0861813 32.8467 0.172363 33.54C0.258544 34.2333 0.517088 34.84 0.775631 35.36C1.03418 35.9667 1.46508 36.4867 1.89599 36.92C2.32689 37.3533 2.84398 37.7867 3.44725 38.0467C4.05052 38.3933 4.65379 38.5667 5.25706 38.6533C6.03269 38.9133 6.63596 39 7.32541 39C7.58395 39 7.92868 39 8.18722 39C8.53195 39 8.87667 39 9.2214 39H106.779C107.123 39 107.468 39 107.813 39C108.071 39 108.416 39 108.675 39C109.364 39 109.967 38.9133 110.571 38.8267C111.26 38.74 111.863 38.48 112.38 38.22C112.984 37.96 113.501 37.5267 113.932 37.0933C114.363 36.66 114.793 36.14 115.052 35.5333C115.311 34.9267 115.569 34.32 115.655 33.7133C115.741 33.1067 115.828 32.4133 115.828 31.72C115.828 31.46 115.828 31.1133 115.828 30.8533C115.828 30.5067 115.828 30.16 115.828 29.8133V9.27333C115.828 8.92667 115.828 8.58 115.828 8.23333C115.828 7.97333 115.828 7.62667 115.828 7.36667C115.828 6.67333 115.741 6.06667 115.655 5.37333C115.569 4.68 115.311 4.07333 115.052 3.55333C114.793 2.94667 114.363 2.42667 113.932 1.99333C113.501 1.56 112.984 1.12667 112.38 0.866667C111.777 0.606667 111.174 0.346667 110.571 0.26C109.967 0.173333 109.278 0.0866667 108.675 0.0866667C108.416 0.0866667 108.071 0.0866667 107.813 0.0866667C107.468 0 107.123 0 106.779 0Z" fill="#B1B3B5"/>
<path d="M8.18722 38.1334C7.92868 38.1334 7.58396 38.1334 7.32541 38.1334C6.80832 38.1334 6.11887 38.0467 5.51561 37.96C4.91234 37.8734 4.39525 37.7 3.87816 37.44C3.36107 37.18 2.93017 36.8334 2.49926 36.4867C2.06835 36.0534 1.80981 35.62 1.55127 35.1C1.29272 34.58 1.12036 34.06 1.03418 33.4534C0.861816 32.8467 0.861816 32.1534 0.861816 31.6334C0.861816 31.46 0.861816 30.7667 0.861816 30.7667V8.23337C0.861816 8.23337 0.861816 7.54003 0.861816 7.3667C0.861816 6.8467 0.861816 6.15337 1.03418 5.5467C1.12036 4.94003 1.29272 4.42003 1.55127 3.90003C1.80981 3.38003 2.15454 2.9467 2.49926 2.51337C2.93017 2.08003 3.36107 1.73337 3.87816 1.47337C4.39525 1.21337 4.91234 1.04003 5.51561 0.953366C6.11887 0.866699 6.80832 0.866699 7.32541 0.866699H8.18722H107.813H108.675C109.192 0.866699 109.795 0.866699 110.484 1.04003C111.088 1.1267 111.605 1.30003 112.122 1.56003C112.639 1.82003 113.07 2.1667 113.501 2.51337C113.932 2.9467 114.19 3.38003 114.535 3.90003C114.793 4.42003 114.966 4.94003 115.052 5.5467C115.138 6.15337 115.224 6.76003 115.224 7.3667C115.224 7.6267 115.224 7.97337 115.224 8.23337C115.224 8.58003 115.224 8.9267 115.224 9.27337V29.64C115.224 29.9867 115.224 30.3334 115.224 30.68C115.224 31.0267 115.224 31.2867 115.224 31.5467C115.224 32.1534 115.138 32.76 115.052 33.3667C114.966 33.9734 114.793 34.4934 114.535 35.0134C114.276 35.5334 113.932 35.9667 113.587 36.4C113.156 36.8334 112.725 37.18 112.208 37.44C111.691 37.7 111.174 37.8734 110.571 37.96C109.967 38.0467 109.278 38.1334 108.761 38.1334C108.502 38.1334 108.158 38.1334 107.899 38.1334H106.865H8.18722Z" fill="black"/>
<path d="M24.0447 19.76C24.0447 17.0733 26.1992 15.7733 26.3716 15.6866C25.0788 13.8666 23.1829 13.6066 22.4934 13.6066C20.856 13.4333 19.3047 14.56 18.4429 14.56C17.5811 14.56 16.2884 13.6066 14.9095 13.6066C13.0996 13.6066 11.4622 14.6466 10.6004 16.2933C8.7044 19.5866 10.0833 24.3533 11.8931 26.9533C12.7549 28.2533 13.8753 29.7266 15.2542 29.64C16.6331 29.5533 17.064 28.7733 18.7014 28.7733C20.3389 28.7733 20.7698 29.64 22.1487 29.64C23.6138 29.64 24.4756 28.34 25.3374 27.04C26.3716 25.5666 26.8025 24.0933 26.8025 24.0066C26.8025 24.0933 24.0447 22.9666 24.0447 19.76Z" fill="white"/>
<path d="M21.373 11.8733C22.0624 11.0066 22.5795 9.70662 22.4934 8.49329C21.4592 8.57995 20.1665 9.18662 19.3908 10.14C18.7014 10.92 18.0981 12.22 18.2705 13.4333C19.3908 13.52 20.5974 12.8266 21.373 11.8733Z" fill="white"/>
<path d="M41.0224 26.4333H36.4548L35.3345 29.7266H33.3523L37.6614 17.5933H39.6435L43.9526 29.7266H41.9704L41.0224 26.4333ZM36.8857 24.9599H40.5053L38.7817 19.6733H38.6955L36.8857 24.9599Z" fill="white"/>
<path d="M53.5188 25.3066C53.5188 28.0799 52.0537 29.8133 49.813 29.8133C48.5202 29.8133 47.5723 29.2933 47.0552 28.2533V32.5866H45.2454V20.8866H46.969V22.3599C47.4861 21.4066 48.5203 20.7999 49.7268 20.7999C52.0537 20.7999 53.5188 22.6199 53.5188 25.3066ZM51.6228 25.3066C51.6228 23.4866 50.6748 22.3599 49.2959 22.3599C47.917 22.3599 46.969 23.5733 46.969 25.3066C46.969 27.1266 47.917 28.2533 49.2959 28.2533C50.6748 28.2533 51.6228 27.1266 51.6228 25.3066Z" fill="white"/>
<path d="M63.1711 25.3066C63.1711 28.0799 61.706 29.8133 59.4653 29.8133C58.1726 29.8133 57.2246 29.2933 56.7075 28.2533V32.5866H54.8977V20.8866H56.6213V22.3599C57.1384 21.4066 58.1726 20.7999 59.3791 20.7999C61.706 20.7999 63.1711 22.6199 63.1711 25.3066ZM61.2751 25.3066C61.2751 23.4866 60.3271 22.3599 58.9482 22.3599C57.5693 22.3599 56.6213 23.5733 56.6213 25.3066C56.6213 27.1266 57.5693 28.2533 58.9482 28.2533C60.4133 28.2533 61.2751 27.1266 61.2751 25.3066Z" fill="white"/>
<path d="M69.5483 26.3466C69.7207 27.5599 70.841 28.3399 72.3923 28.3399C73.9436 28.3399 74.9778 27.5599 74.9778 26.4333C74.9778 25.4799 74.2883 24.9599 72.737 24.5266L71.1858 24.1799C68.9451 23.6599 67.9109 22.6199 67.9109 20.8866C67.9109 18.8066 69.7207 17.3333 72.3061 17.3333C74.8916 17.3333 76.6152 18.8066 76.6152 20.8866H74.8054C74.7192 19.6733 73.685 18.9799 72.22 18.9799C70.7549 18.9799 69.8069 19.7599 69.8069 20.7999C69.8069 21.6666 70.4101 22.1866 71.9614 22.5333L73.2541 22.8799C75.7534 23.4866 76.7876 24.4399 76.7876 26.2599C76.7876 28.5133 74.9777 29.9866 72.1338 29.9866C69.4621 29.9866 67.6523 28.5999 67.5662 26.4333H69.5483V26.3466Z" fill="white"/>
<path d="M80.8381 18.8066V20.8866H82.4756V22.36H80.8381V27.2133C80.8381 27.9933 81.1828 28.34 81.8723 28.34C82.0447 28.34 82.3894 28.34 82.4756 28.34V29.7266C82.3032 29.8133 81.8723 29.8133 81.4414 29.8133C79.6316 29.8133 78.9421 29.12 78.9421 27.4733V22.4466H77.6494V20.9733H78.9421V18.8933H80.8381V18.8066Z" fill="white"/>
<path d="M83.4236 25.3066C83.4236 22.5333 85.061 20.7999 87.5603 20.7999C90.1457 20.7999 91.697 22.5333 91.697 25.3066C91.697 28.0799 90.0595 29.8133 87.5603 29.8133C85.061 29.8133 83.4236 28.0799 83.4236 25.3066ZM89.9734 25.3066C89.9734 23.3999 89.1115 22.2733 87.6465 22.2733C86.1814 22.2733 85.3196 23.3999 85.3196 25.3066C85.3196 27.2133 86.1814 28.3399 87.6465 28.3399C89.1115 28.3399 89.9734 27.2133 89.9734 25.3066Z" fill="white"/>
<path d="M93.2483 20.8866H94.9719V22.3599C95.2305 21.3199 96.0061 20.7999 97.0403 20.7999C97.2988 20.7999 97.5574 20.7999 97.6435 20.8866V22.6199C97.4712 22.5333 97.2126 22.5333 96.8679 22.5333C95.7476 22.5333 94.9719 23.3133 94.9719 24.5266V29.7266H93.1621V20.8866H93.2483Z" fill="white"/>
<path d="M106.089 27.1266C105.831 28.6866 104.28 29.8133 102.297 29.8133C99.7119 29.8133 98.1606 28.0799 98.1606 25.3066C98.1606 22.5333 99.7119 20.7133 102.211 20.7133C104.624 20.7133 106.175 22.3599 106.175 25.0466V25.6533H99.9704V25.7399C99.9704 27.2133 100.918 28.2533 102.297 28.2533C103.332 28.2533 104.107 27.7333 104.366 27.0399H106.089V27.1266ZM99.9704 24.5266H104.366C104.366 23.1399 103.504 22.2733 102.211 22.2733C100.918 22.2733 100.057 23.1399 99.9704 24.5266Z" fill="white"/>
<path d="M36.7131 8.49329C38.4367 8.49329 39.4709 9.53329 39.4709 11.3533C39.4709 13.1733 38.4367 14.3 36.7131 14.3H34.6448V8.49329H36.7131ZM35.5066 13.52H36.6269C37.8335 13.52 38.5229 12.74 38.5229 11.44C38.5229 10.14 37.8335 9.35995 36.6269 9.35995H35.5066V13.52Z" fill="white"/>
<path d="M40.4189 12.1332C40.4189 10.7465 41.1946 9.87988 42.4873 9.87988C43.78 9.87988 44.5556 10.7465 44.5556 12.1332C44.5556 13.5199 43.78 14.3865 42.4873 14.3865C41.1946 14.3865 40.4189 13.5199 40.4189 12.1332ZM43.6076 12.1332C43.6076 11.1799 43.1767 10.6599 42.4011 10.6599C41.6255 10.6599 41.1946 11.1799 41.1946 12.1332C41.1946 13.0865 41.6255 13.6065 42.4011 13.6065C43.1767 13.6065 43.6076 13.0865 43.6076 12.1332Z" fill="white"/>
<path d="M49.9851 14.2999H49.1233L48.2615 11.0932H48.1753L47.3135 14.2999H46.4517L45.2451 9.87988H46.1069L46.8826 13.2599H46.9687L47.8306 9.87988H48.6924L49.5542 13.2599H49.6404L50.416 9.87988H51.2778L49.9851 14.2999Z" fill="white"/>
<path d="M52.2258 9.96655H53.0876V10.6599H53.1738C53.3462 10.1399 53.7771 9.87988 54.4665 9.87988C55.4145 9.87988 56.0178 10.4865 56.0178 11.5265V14.3865H55.156V11.7866C55.156 11.0932 54.8113 10.7465 54.208 10.7465C53.6047 10.7465 53.1738 11.1799 53.1738 11.8732V14.4732H52.312V9.96655H52.2258Z" fill="white"/>
<path d="M57.3105 8.23328H58.1724V14.2999H57.3105V8.23328Z" fill="white"/>
<path d="M59.3789 12.1332C59.3789 10.7465 60.1545 9.87988 61.4473 9.87988C62.74 9.87988 63.5156 10.7465 63.5156 12.1332C63.5156 13.5199 62.74 14.3865 61.4473 14.3865C60.1545 14.3865 59.3789 13.5199 59.3789 12.1332ZM62.5676 12.1332C62.5676 11.1799 62.1367 10.6599 61.3611 10.6599C60.5854 10.6599 60.1545 11.1799 60.1545 12.1332C60.1545 13.0865 60.5854 13.6065 61.3611 13.6065C62.1367 13.6065 62.5676 13.0865 62.5676 12.1332Z" fill="white"/>
<path d="M64.3772 13.0866C64.3772 12.3066 64.9805 11.8732 66.0146 11.7866L67.2212 11.6999V11.3532C67.2212 10.9199 66.8765 10.6599 66.3594 10.6599C65.8423 10.6599 65.5837 10.8332 65.4114 11.1799H64.5496C64.6357 10.3999 65.3252 9.96655 66.3594 9.96655C67.4797 9.96655 68.083 10.4866 68.083 11.4399V14.4732H67.2212V13.8666H67.135C66.8765 14.2999 66.3594 14.5599 65.8423 14.5599C64.9805 14.3866 64.3772 13.8666 64.3772 13.0866ZM67.2212 12.7399V12.3932L66.187 12.4799C65.5837 12.4799 65.3252 12.7399 65.3252 13.0866C65.3252 13.5199 65.6699 13.6932 66.1008 13.6932C66.7041 13.6932 67.2212 13.2599 67.2212 12.7399Z" fill="white"/>
<path d="M69.2034 12.1333C69.2034 10.7466 69.8928 9.87994 71.0132 9.87994C71.6164 9.87994 72.1335 10.1399 72.3921 10.6599V8.23328H73.2539V14.2999H72.3921V13.6066C72.1335 14.1266 71.6164 14.3866 71.0132 14.3866C69.8928 14.3866 69.2034 13.5199 69.2034 12.1333ZM70.0652 12.1333C70.0652 13.0866 70.4961 13.6066 71.2717 13.6066C71.9612 13.6066 72.4783 12.9999 72.4783 12.1333C72.4783 11.1799 72.0473 10.6599 71.2717 10.6599C70.4961 10.6599 70.0652 11.1799 70.0652 12.1333Z" fill="white"/>
<path d="M76.7874 12.1332C76.7874 10.7465 77.563 9.87988 78.8557 9.87988C80.1484 9.87988 80.9241 10.7465 80.9241 12.1332C80.9241 13.5199 80.1484 14.3865 78.8557 14.3865C77.563 14.3865 76.7874 13.5199 76.7874 12.1332ZM80.0622 12.1332C80.0622 11.1799 79.6313 10.6599 78.8557 10.6599C78.0801 10.6599 77.6492 11.1799 77.6492 12.1332C77.6492 13.0865 78.0801 13.6065 78.8557 13.6065C79.6313 13.6065 80.0622 13.0865 80.0622 12.1332Z" fill="white"/>
<path d="M82.1306 9.96655H82.9924V10.6599H83.0786C83.251 10.1399 83.6819 9.87988 84.3713 9.87988C85.3193 9.87988 85.9226 10.4865 85.9226 11.5265V14.3865H85.0608V11.7866C85.0608 11.0932 84.716 10.7465 84.1128 10.7465C83.5095 10.7465 83.0786 11.1799 83.0786 11.8732V14.4732H82.2168V9.96655H82.1306Z" fill="white"/>
<path d="M90.6626 8.83997V9.96663H91.6106V10.66H90.6626V12.9133C90.6626 13.3466 90.835 13.6066 91.2659 13.6066C91.4382 13.6066 91.4382 13.6066 91.6106 13.6066V14.3C91.4382 14.3 91.352 14.3866 91.1797 14.3866C90.2317 14.3866 89.8008 14.04 89.8008 13.1733V10.66H89.1113V9.96663H89.8008V8.83997H90.6626Z" fill="white"/>
<path d="M92.8171 8.23328H93.6789V10.6599H93.7651C93.9375 10.1399 94.4546 9.87994 95.0579 9.87994C96.0058 9.87994 96.5229 10.4866 96.5229 11.5266V14.3866H95.6611V11.7866C95.6611 11.0933 95.3164 10.7466 94.7131 10.7466C94.0237 10.7466 93.5928 11.1799 93.5928 11.8733V14.4733H92.731V8.23328H92.8171Z" fill="white"/>
<path d="M101.608 13.1732C101.435 13.9532 100.746 14.4732 99.7117 14.4732C98.4189 14.4732 97.7295 13.6066 97.7295 12.2199C97.7295 10.8332 98.5051 9.96655 99.7117 9.96655C100.918 9.96655 101.694 10.8332 101.694 12.2199V12.4799H98.5913V12.5666C98.5913 13.3466 99.0222 13.8666 99.7117 13.8666C100.229 13.8666 100.573 13.6932 100.746 13.3466H101.608V13.1732ZM98.5051 11.6999H100.746C100.746 11.0066 100.315 10.5732 99.7117 10.5732C99.0222 10.5732 98.5913 11.0066 98.5051 11.6999Z" fill="white"/>
</g>
<defs>
<clipPath id="clip0_2_1137">
<rect width="116" height="39" fill="white"/>
</clipPath>
</defs>
</svg>
