<svg width="117" height="39" viewBox="0 0 117 39" fill="none" xmlns="http://www.w3.org/2000/svg">
<g clip-path="url(#clip0_2_1068)">
<path d="M107.699 0H9.30089C8.95319 0 8.6055 0 8.2578 0C7.99703 0 7.64933 0 7.38856 0C6.69316 0 6.0847 0.0866667 5.3893 0.173333C4.78083 0.26 4.17236 0.52 3.56389 0.78C2.95542 1.12667 2.43388 1.47333 1.91233 1.90667C1.47771 2.34 1.04309 2.94667 0.782318 3.46667C0.521545 4.16 0.260773 4.76667 0.173848 5.37333C0.0869242 6.06667 0 6.67333 0 7.36667C0 7.62667 0 7.97333 0 8.23333C0 8.58 0 8.92667 0 9.27333V29.64C0 29.9867 0 30.3333 0 30.68C0 30.94 0 31.2867 0 31.5467C0 32.24 0.0869242 32.8467 0.173848 33.54C0.260773 34.2333 0.521545 34.84 0.782318 35.36C1.04309 35.9667 1.47771 36.4867 1.91233 36.92C2.34695 37.3533 2.8685 37.7867 3.47697 38.0467C4.08544 38.3933 4.69391 38.5667 5.30238 38.6533C6.0847 38.9133 6.69316 39 7.38856 39C7.64933 39 7.99703 39 8.2578 39C8.6055 39 8.95319 39 9.30089 39H107.699C108.047 39 108.395 39 108.742 39C109.003 39 109.351 39 109.611 39C110.307 39 110.915 38.9133 111.524 38.8267C112.219 38.74 112.828 38.48 113.349 38.22C113.958 37.96 114.479 37.5267 114.914 37.0933C115.348 36.66 115.783 36.14 116.044 35.5333C116.305 34.9267 116.565 34.32 116.652 33.7133C116.739 33.1067 116.826 32.4133 116.826 31.72C116.826 31.46 116.826 31.1133 116.826 30.8533C116.826 30.5067 116.826 30.16 116.826 29.8133V9.27333C116.826 8.92667 116.826 8.58 116.826 8.23333C116.826 7.97333 116.826 7.62667 116.826 7.36667C116.826 6.67333 116.739 6.06667 116.652 5.37333C116.565 4.68 116.305 4.07333 116.044 3.55333C115.783 2.94667 115.348 2.42667 114.914 1.99333C114.479 1.56 113.958 1.12667 113.349 0.866667C112.741 0.606667 112.132 0.346667 111.524 0.26C110.915 0.173333 110.22 0.0866667 109.611 0.0866667C109.351 0.0866667 109.003 0.0866667 108.742 0.0866667C108.395 0 108.047 0 107.699 0Z" fill="#B1B3B5"/>
<path d="M8.2577 38.1334C7.99693 38.1334 7.64923 38.1334 7.38846 38.1334C6.86691 38.1334 6.17152 38.0467 5.56305 37.96C4.95458 37.8734 4.43303 37.7 3.91149 37.44C3.38994 37.18 2.95532 36.8334 2.5207 36.4867C2.08608 36.0534 1.82531 35.62 1.56453 35.1C1.30376 34.58 1.12991 34.06 1.04299 33.4534C0.869141 32.8467 0.869141 32.1534 0.869141 31.6334C0.869141 31.46 0.869141 30.7667 0.869141 30.7667V8.23337C0.869141 8.23337 0.869141 7.54003 0.869141 7.3667C0.869141 6.8467 0.869141 6.15337 1.04299 5.5467C1.12991 4.94003 1.30376 4.42003 1.56453 3.90003C1.82531 3.38003 2.173 2.9467 2.5207 2.51337C2.95532 2.08003 3.38994 1.73337 3.91149 1.47337C4.43303 1.21337 4.95458 1.04003 5.56305 0.953366C6.17152 0.866699 6.86691 0.866699 7.38846 0.866699H8.2577H108.742H109.611C110.133 0.866699 110.741 0.866699 111.437 1.04003C112.045 1.1267 112.567 1.30003 113.088 1.56003C113.61 1.82003 114.044 2.1667 114.479 2.51337C114.914 2.9467 115.174 3.38003 115.522 3.90003C115.783 4.42003 115.957 4.94003 116.044 5.5467C116.131 6.15337 116.218 6.76003 116.218 7.3667C116.218 7.6267 116.218 7.97337 116.218 8.23337C116.218 8.58003 116.218 8.9267 116.218 9.27337V29.64C116.218 29.9867 116.218 30.3334 116.218 30.68C116.218 31.0267 116.218 31.2867 116.218 31.5467C116.218 32.1534 116.131 32.76 116.044 33.3667C115.957 33.9734 115.783 34.4934 115.522 35.0134C115.261 35.5334 114.914 35.9667 114.566 36.4C114.131 36.8334 113.697 37.18 113.175 37.44C112.654 37.7 112.132 37.8734 111.524 37.96C110.915 38.0467 110.22 38.1334 109.698 38.1334C109.437 38.1334 109.09 38.1334 108.829 38.1334H107.786H8.2577Z" fill="black"/>
<path d="M40.8543 12.1333C40.8543 12.8266 40.6805 13.4333 40.2459 13.78C39.8113 14.3 39.1159 14.56 38.4205 14.56C37.7251 14.56 37.0297 14.3 36.5951 13.78C36.0735 13.26 35.8127 12.6533 35.8127 11.8733C35.8127 11.0933 36.0735 10.4866 36.5951 9.96665C37.1166 9.44665 37.7251 9.18665 38.4205 9.18665C38.7682 9.18665 39.1159 9.27331 39.4636 9.35998C39.8113 9.53331 40.072 9.70665 40.2459 9.96665L39.8113 10.4C39.4636 9.96665 39.0289 9.79331 38.4205 9.79331C37.8989 9.79331 37.4643 9.96664 37.0297 10.3133C36.682 10.66 36.4212 11.18 36.4212 11.7866C36.4212 12.3933 36.5951 12.9133 37.0297 13.26C37.3774 13.6066 37.8989 13.78 38.4205 13.78C39.0289 13.78 39.4636 13.6066 39.8113 13.1733C40.072 12.9133 40.159 12.5666 40.2459 12.1333H38.4205V11.5266H40.8543C40.7674 11.96 40.8543 12.0466 40.8543 12.1333Z" fill="white" stroke="white" stroke-width="0.1944" stroke-miterlimit="10"/>
<path d="M44.6791 10.0533H42.3321V11.6133H44.4183V12.22H42.3321V13.8667H44.6791V14.4733H41.7236V9.44666H44.6791V10.0533Z" fill="white" stroke="white" stroke-width="0.1944" stroke-miterlimit="10"/>
<path d="M47.4607 14.4733H46.7653V10.0533H45.3745V9.44666H48.8515V10.0533H47.4607V14.4733Z" fill="white" stroke="white" stroke-width="0.1944" stroke-miterlimit="10"/>
<path d="M51.3721 14.4733V9.44666H51.9805V14.4733H51.3721Z" fill="white" stroke="white" stroke-width="0.1944" stroke-miterlimit="10"/>
<path d="M54.936 14.4733H54.2406V10.0533H52.8499V9.44666H56.3268V10.0533H54.936V14.4733Z" fill="white" stroke="white" stroke-width="0.1944" stroke-miterlimit="10"/>
<path d="M62.9331 13.8666C62.4116 14.3866 61.8031 14.6466 61.1077 14.6466C60.3254 14.6466 59.7169 14.3866 59.2823 13.8666C58.7608 13.3466 58.5 12.74 58.5 11.96C58.5 11.18 58.7608 10.5733 59.2823 10.0533C59.8039 9.53332 60.4123 9.27332 61.1077 9.27332C61.8031 9.27332 62.4985 9.53332 62.9331 10.0533C63.4547 10.5733 63.7155 11.18 63.7155 11.96C63.7155 12.74 63.4547 13.3466 62.9331 13.8666ZM59.7169 13.4333C60.0646 13.78 60.5862 14.04 61.1077 14.04C61.6293 14.04 62.1508 13.8666 62.4985 13.4333C62.8462 13.0866 63.0201 12.5666 63.0201 11.96C63.0201 11.3533 62.8462 10.92 62.4985 10.4866C62.1508 10.14 61.6293 9.87998 61.1077 9.87998C60.5862 9.87998 60.0646 10.0533 59.7169 10.4866C59.3692 10.8333 59.1954 11.3533 59.1954 11.96C59.1085 12.5666 59.3692 13 59.7169 13.4333Z" fill="white" stroke="white" stroke-width="0.1944" stroke-miterlimit="10"/>
<path d="M64.5847 14.4733V9.44666H65.367L67.8009 13.3467V12.3933V9.44666H68.4963V14.4733H67.8009L65.1932 10.3133V11.2667V14.3867H64.5847V14.4733Z" fill="white" stroke="white" stroke-width="0.1944" stroke-miterlimit="10"/>
<path d="M58.3262 21.8399C56.3269 21.8399 54.6753 23.3133 54.6753 25.3933C54.6753 27.4733 56.3269 28.9466 58.3262 28.9466C60.3254 28.9466 61.977 27.3866 61.977 25.3933C61.8901 23.3999 60.3254 21.8399 58.3262 21.8399ZM58.3262 27.6466C57.1961 27.6466 56.3269 26.7799 56.3269 25.4799C56.3269 24.1799 57.2831 23.3133 58.3262 23.3133C59.4562 23.3133 60.3254 24.1799 60.3254 25.4799C60.3254 26.6933 59.3692 27.6466 58.3262 27.6466ZM50.4161 21.8399C48.4168 21.8399 46.7652 23.3133 46.7652 25.3933C46.7652 27.4733 48.4168 28.9466 50.4161 28.9466C52.4153 28.9466 54.0669 27.3866 54.0669 25.3933C54.0669 23.3999 52.4153 21.8399 50.4161 21.8399ZM50.4161 27.6466C49.286 27.6466 48.4168 26.7799 48.4168 25.4799C48.4168 24.1799 49.373 23.3133 50.4161 23.3133C51.5461 23.3133 52.4153 24.1799 52.4153 25.4799C52.5022 26.6933 51.5461 27.6466 50.4161 27.6466ZM41.1152 22.9666V24.5266H44.766C44.6791 25.3933 44.3314 25.9999 43.8967 26.4333C43.3752 26.9533 42.5059 27.5599 41.1152 27.5599C38.8551 27.5599 37.1166 25.7399 37.1166 23.4866C37.1166 21.2333 38.8551 19.4133 41.1152 19.4133C42.3321 19.4133 43.2013 19.8466 43.8967 20.5399L44.9398 19.4999C44.0706 18.6333 42.8536 17.9399 41.1152 17.9399C38.0728 17.9399 35.4651 20.4533 35.4651 23.4866C35.4651 26.5199 38.0728 29.0333 41.1152 29.0333C42.7667 29.0333 44.0706 28.5133 45.0268 27.4733C46.0698 26.4333 46.3306 25.0466 46.3306 23.9199C46.3306 23.5733 46.3306 23.2266 46.2437 22.9666H41.1152ZM79.3618 24.1799C79.101 23.3999 78.1449 21.9266 76.3195 21.9266C74.4941 21.9266 72.9294 23.3999 72.9294 25.4799C72.9294 27.4733 74.4941 29.0333 76.4933 29.0333C78.1449 29.0333 79.101 27.9933 79.4487 27.4733L78.2318 26.6066C77.7972 27.2133 77.2756 27.5599 76.4933 27.5599C75.711 27.5599 75.1025 27.2133 74.7548 26.4333L79.5357 24.4399L79.3618 24.1799ZM74.4941 25.3066C74.4941 23.9199 75.5372 23.2266 76.4064 23.2266C77.0149 23.2266 77.5364 23.5733 77.7103 24.0066L74.4941 25.3066ZM70.5825 28.8599H72.1471V18.2866H70.5825V28.8599ZM67.9747 22.7066C67.5401 22.2733 66.8447 21.9266 66.0624 21.9266C64.237 21.9266 62.5854 23.4866 62.5854 25.5666C62.5854 27.5599 64.237 29.1199 66.0624 29.1199C66.9317 29.1199 67.627 28.7733 67.9747 28.3399H68.0617V28.8599C68.0617 30.2466 67.3663 30.9399 66.1493 30.9399C65.1932 30.9399 64.5847 30.2466 64.3239 29.6399L62.9331 30.2466C63.3678 31.1999 64.4109 32.3266 66.1493 32.3266C67.9747 32.3266 69.5394 31.1999 69.5394 28.5999V22.1866H68.0617V22.7066H67.9747ZM66.1493 27.6466C65.0193 27.6466 64.1501 26.7799 64.1501 25.4799C64.1501 24.1799 65.0193 23.3133 66.1493 23.3133C67.1924 23.3133 68.0617 24.2666 68.0617 25.4799C68.0617 26.6933 67.2794 27.6466 66.1493 27.6466ZM86.7504 18.2866H83.0126V28.8599H84.5773V24.8733H86.7504C88.4889 24.8733 90.2273 23.5733 90.2273 21.5799C90.2273 19.5866 88.4889 18.2866 86.7504 18.2866ZM86.8373 23.3999H84.5773V19.7599H86.8373C88.0542 19.7599 88.6627 20.7133 88.6627 21.5799C88.6627 22.3599 87.9673 23.3999 86.8373 23.3999ZM96.5728 21.8399C95.4428 21.8399 94.2259 22.3599 93.7912 23.4866L95.182 24.0933C95.4428 23.4866 96.0513 23.3133 96.6597 23.3133C97.4421 23.3133 98.3113 23.8333 98.3113 24.6999V24.7866C98.0505 24.6133 97.4421 24.3533 96.6597 24.3533C95.182 24.3533 93.6174 25.2199 93.6174 26.6933C93.6174 28.0799 94.8343 29.0333 96.2251 29.0333C97.2682 29.0333 97.8767 28.5999 98.2244 27.9933H98.3113V28.7733H99.8759V24.6999C99.789 22.8799 98.3982 21.8399 96.5728 21.8399ZM96.399 27.6466C95.8774 27.6466 95.182 27.3866 95.182 26.7799C95.182 25.9999 96.0513 25.6533 96.8336 25.6533C97.529 25.6533 97.8767 25.8266 98.3113 25.9999C98.1375 26.9533 97.2682 27.6466 96.399 27.6466ZM105.352 22.0999L103.527 26.6933H103.44L101.527 22.0999H99.789L102.571 28.5133L101.006 32.0666H102.658L107.004 22.0999H105.352ZM91.0966 28.8599H92.6612V18.2866H91.0966V28.8599Z" fill="white"/>
<path d="M9.56156 9.88C9.30079 10.14 9.21387 10.5733 9.21387 11.0933V29.7267C9.21387 30.2467 9.38772 30.68 9.56156 30.94L9.64849 31.0267L20.0794 20.6267V20.54V20.4533L9.56156 9.88Z" fill="#5BC8F3"/>
<path d="M23.5563 24.0067L20.0793 20.54V20.4534V20.3667L23.5563 16.9L23.6432 16.9867L27.8156 19.3267C29.0325 20.02 29.0325 21.06 27.8156 21.7534L23.5563 24.0067Z" fill="url(#paint0_linear_2_1068)"/>
<path d="M23.6432 23.92L20.0794 20.3667L9.56152 30.8534C9.90922 31.2867 10.6046 31.2867 11.3 30.94L23.6432 23.92Z" fill="url(#paint1_linear_2_1068)"/>
<path d="M23.6432 16.8133L11.3 9.87999C10.6046 9.44665 9.90922 9.53332 9.56152 9.96665L20.0794 20.4533L23.6432 16.8133Z" fill="url(#paint2_linear_2_1068)"/>
</g>
<defs>
<linearGradient id="paint0_linear_2_1068" x1="27.0103" y1="20.395" x2="6.5781" y2="20.395" gradientUnits="userSpaceOnUse">
<stop stop-color="#FFDF00"/>
<stop offset="0.4087" stop-color="#FBBC0E"/>
<stop offset="0.7754" stop-color="#F9A418"/>
<stop offset="1" stop-color="#F89B1C"/>
</linearGradient>
<linearGradient id="paint1_linear_2_1068" x1="21.708" y1="22.327" x2="2.54744" y2="41.5445" gradientUnits="userSpaceOnUse">
<stop stop-color="#EE4447"/>
<stop offset="1" stop-color="#C5166C"/>
</linearGradient>
<linearGradient id="paint2_linear_2_1068" x1="2.40479" y1="-0.783565" x2="18.0488" y2="14.907" gradientUnits="userSpaceOnUse">
<stop stop-color="#269E6F"/>
<stop offset="0.05089" stop-color="#2BA06F"/>
<stop offset="0.4663" stop-color="#53B26B"/>
<stop offset="0.7971" stop-color="#6BBD69"/>
<stop offset="1" stop-color="#74C168"/>
</linearGradient>
<clipPath id="clip0_2_1068">
<rect width="117" height="39" fill="white"/>
</clipPath>
</defs>
</svg>
