<?xml version="1.0" encoding="utf-8"?>
<!-- Generator: Adobe Illustrator 27.2.0, SVG Export Plug-In . SVG Version: 6.00 Build 0)  -->
<svg version="1.1" id="Layer_1" xmlns="http://www.w3.org/2000/svg" xmlns:xlink="http://www.w3.org/1999/xlink" x="0px" y="0px"
	 viewBox="0 0 10.5 20" style="enable-background:new 0 0 10.5 20;" xml:space="preserve">
<style type="text/css">
	.st0{clip-path:url(#SVGID_00000000910188350539265330000000148671183600270743_);}
	.st1{fill:#A9A9A9;}
</style>
<g>
	<defs>
		<rect id="SVGID_1_" width="10.5" height="20"/>
	</defs>
	<clipPath id="SVGID_00000114781603764828308420000003022297921777166228_">
		<use xlink:href="#SVGID_1_"  style="overflow:visible;"/>
	</clipPath>
	<g style="clip-path:url(#SVGID_00000114781603764828308420000003022297921777166228_);">
		<path class="st1" d="M9.2,0H1.3C0.6,0,0,0.6,0,1.3v17.3C0,19.4,0.6,20,1.3,20h7.8c0.7,0,1.3-0.6,1.3-1.3V1.3C10.5,0.6,9.9,0,9.2,0
			z M5.3,0.7c0.2,0,0.4,0.2,0.4,0.4S5.5,1.5,5.3,1.5C5,1.5,4.9,1.3,4.9,1.1S5,0.7,5.3,0.7z M7.6,19H2.9v-0.7h4.6V19z M9.6,17.2H0.9
			V2.2h8.7V17.2z"/>
	</g>
</g>
</svg>
